<?xml version="1.0" encoding="UTF-8" standalone="no"?>
<svg width="155px" height="87px" viewBox="0 0 155 87" version="1.1" xmlns="http://www.w3.org/2000/svg" xmlns:xlink="http://www.w3.org/1999/xlink">
    <!-- Generator: Sketch 39.1 (31720) - http://www.bohemiancoding.com/sketch -->
    <title>noun_702250_cc</title>
    <desc>Created with Sketch.</desc>
    <defs></defs>
    <g id="Page-1" stroke="none" stroke-width="1" fill="none" fill-rule="evenodd" opacity="0.141849347">
        <g id="店铺详情-copy" transform="translate(-26.000000, -411.000000)" fill="#FFFFFF">
            <g id="noun_702250_cc" transform="translate(26.000000, 411.000000)">
                <g id="Group">
                    <g>
                        <g transform="translate(125.600000, 0.000000)" id="Shape">
                            <path d="M10.2,77.4 C10.2,82.68 14.52,87 19.8,87 L19.8,87 C25.08,87 29.4,82.68 29.4,77.4 L29.4,52.44 L10.2,52.44 L10.2,77.4 L10.2,77.4 Z"></path>
                            <path d="M27.48,48.44 C28.6,48.44 29.4,47.64 29.4,46.52 L29.4,29.24 L29.4,3.48 C29.4,1.72 27.96,0.44 26.2,0.6 C4.6,3.48 1.24,35.32 0.6,45.4 C0.44,47 1.88,48.44 3.48,48.44 L27.48,48.44 L27.48,48.44 Z"></path>
                        </g>
                        <path d="M4.8,77.4 C4.8,82.68 9.12,87 14.4,87 C19.68,87 24,82.68 24,77.4 L24,42.84 L4.8,42.84 L4.8,77.4 L4.8,77.4 Z" id="Shape"></path>
                        <path d="M24.64,39.48 C26.08,38.04 28.64,33.88 28.8,30.36 L28.8,3.48 C28.8,1.88 27.52,0.6 25.92,0.6 C24.32,0.6 23.04,1.88 23.04,3.48 L23.04,26.52 C23.04,28.12 21.76,29.4 20.16,29.4 C18.56,29.4 17.28,28.12 17.28,26.52 L17.28,3.48 C17.28,1.88 16,0.6 14.4,0.6 C12.8,0.6 11.52,1.88 11.52,3.48 L11.52,26.52 C11.52,28.12 10.24,29.4 8.64,29.4 C7.04,29.4 5.76,28.12 5.76,26.52 L5.76,3.48 C5.76,1.88 4.48,0.6 2.88,0.6 C1.28,0.6 0,1.88 0,3.48 L0,30.36 C0.16,33.88 1.76,37.08 4.16,39.48 C5.76,41.08 23.2,40.92 24.64,39.48 L24.64,39.48 Z" id="Shape"></path>
                        <ellipse id="Oval" cx="77" cy="43.8" rx="40" ry="40"></ellipse>
                    </g>
                </g>
            </g>
        </g>
    </g>
</svg>